<svg width="54" height="51" viewBox="0 0 34 31" fill="none" xmlns="http://www.w3.org/2000/svg">
<ellipse cx="17" cy="13" rx="17" ry="13" fill="#151515"/>
<path d="M9.952 20.696C9.104 20.696 8.288 20.568 7.504 20.312C6.736 20.072 6.112 19.664 5.632 19.088C5.152 18.512 4.912 17.736 4.912 16.76C4.912 15.72 5.112 14.704 5.512 13.712C5.912 12.72 6.448 11.8 7.12 10.952C7.792 10.088 8.544 9.344 9.376 8.72C10.112 8.16 10.96 7.704 11.92 7.352C12.896 7 13.864 6.824 14.824 6.824C15.224 6.824 15.6 6.856 15.952 6.92C16.304 6.968 16.664 7.08 17.032 7.256C17.352 7.4 17.608 7.584 17.8 7.808C17.992 8.016 18.088 8.256 18.088 8.528C18.088 8.56 18.088 8.6 18.088 8.648C18.088 8.696 18.08 8.736 18.064 8.768C18 9.024 17.848 9.32 17.608 9.656C17.384 9.976 17.208 10.312 17.08 10.664C17.064 10.728 16.976 10.784 16.816 10.832C16.656 10.864 16.592 10.848 16.624 10.784C16.752 10.576 16.848 10.32 16.912 10.016C16.992 9.712 17.032 9.408 17.032 9.104C17.032 8.88 17.008 8.672 16.96 8.48C16.928 8.272 16.864 8.096 16.768 7.952C16.608 7.664 16.36 7.464 16.024 7.352C15.688 7.24 15.328 7.184 14.944 7.184C14.576 7.184 14.208 7.224 13.84 7.304C13.472 7.384 13.152 7.472 12.88 7.568C11.952 7.904 11.064 8.432 10.216 9.152C9.464 9.808 8.792 10.568 8.2 11.432C7.624 12.296 7.168 13.184 6.832 14.096C6.496 15.008 6.328 15.88 6.328 16.712C6.328 17.56 6.512 18.232 6.88 18.728C7.248 19.224 7.728 19.576 8.32 19.784C8.912 19.992 9.552 20.096 10.24 20.096C10.848 20.096 11.448 20.032 12.04 19.904C12.648 19.776 13.2 19.616 13.696 19.424C14.544 19.104 15.304 18.712 15.976 18.248C16.664 17.784 17.304 17.184 17.896 16.448C17.976 16.368 18.032 16.328 18.064 16.328C18.112 16.328 18.136 16.36 18.136 16.424C18.136 16.552 18.072 16.704 17.944 16.88C17.4 17.616 16.784 18.232 16.096 18.728C15.408 19.224 14.672 19.632 13.888 19.952C13.36 20.16 12.744 20.336 12.04 20.48C11.352 20.624 10.656 20.696 9.952 20.696ZM21.0243 20.144C20.7843 20.144 20.5683 20.096 20.3763 20C20.2003 19.904 20.1123 19.728 20.1123 19.472C20.1123 19.328 20.1443 19.168 20.2083 18.992C20.3523 18.624 20.5443 18.176 20.7843 17.648C21.0403 17.12 21.2963 16.608 21.5523 16.112C21.8083 15.6 22.0083 15.184 22.1523 14.864C22.2483 14.672 22.2963 14.536 22.2963 14.456C22.2963 14.312 22.2163 14.28 22.0563 14.36C21.8963 14.44 21.7203 14.552 21.5283 14.696C21.3363 14.84 21.1923 14.952 21.0963 15.032C20.6803 15.416 20.2403 15.872 19.7763 16.4C19.3283 16.912 18.9123 17.456 18.5283 18.032C18.1603 18.592 17.8723 19.152 17.6643 19.712C17.6483 19.808 17.5443 19.888 17.3523 19.952C17.1603 20.016 16.9843 20.048 16.8243 20.048C16.5682 20.048 16.4722 19.968 16.5362 19.808C16.9043 18.976 17.2803 18.056 17.6643 17.048C18.0643 16.04 18.5123 15.008 19.0083 13.952C19.3763 13.152 19.7843 12.328 20.2323 11.48C20.6963 10.632 21.2083 9.824 21.7683 9.056C22.3283 8.272 22.9443 7.584 23.6163 6.992C24.2083 6.48 24.8563 6.064 25.5603 5.744C26.2803 5.408 27.0563 5.24 27.8883 5.24C28.2563 5.24 28.5763 5.32 28.8483 5.48C29.1203 5.624 29.2723 5.888 29.3043 6.272V6.488C29.3043 6.712 29.2803 6.936 29.2323 7.16C29.2163 7.224 29.1523 7.256 29.0403 7.256C28.9923 7.256 28.9763 7.248 28.9922 7.232C29.0563 6.816 28.9443 6.52 28.6562 6.344C28.3843 6.168 28.0323 6.08 27.6003 6.08C26.8163 6.08 26.0963 6.224 25.4403 6.512C24.7843 6.8 24.1763 7.184 23.6163 7.664C22.7523 8.416 22.0003 9.376 21.3603 10.544C20.7203 11.712 20.1683 12.904 19.7043 14.12C19.4803 14.712 19.2563 15.304 19.0323 15.896C18.8243 16.488 18.6243 17.04 18.4323 17.552C19.1523 16.592 19.8403 15.768 20.4963 15.08C21.1683 14.392 21.7523 13.904 22.2483 13.616C22.6483 13.392 23.0083 13.28 23.3283 13.28C23.6323 13.28 23.7843 13.408 23.7843 13.664C23.7843 13.888 23.6723 14.176 23.4483 14.528C23.3363 14.704 23.1603 15 22.9203 15.416C22.6963 15.832 22.4563 16.288 22.2003 16.784C21.9603 17.264 21.7523 17.712 21.5763 18.128C21.4003 18.544 21.3123 18.848 21.3123 19.04C21.3123 19.296 21.4243 19.424 21.6483 19.424C21.7763 19.424 21.9203 19.384 22.0803 19.304C22.2563 19.224 22.3843 19.152 22.4643 19.088C22.8963 18.768 23.3203 18.376 23.7363 17.912C24.1523 17.448 24.5043 17.04 24.7923 16.688C24.8083 16.672 24.8163 16.696 24.8163 16.76C24.8163 16.824 24.8003 16.92 24.7683 17.048C24.7523 17.16 24.7043 17.256 24.6243 17.336C24.4483 17.576 24.2643 17.808 24.0723 18.032C23.8963 18.24 23.7203 18.448 23.5443 18.656C23.2403 19.008 22.8723 19.344 22.4403 19.664C22.0243 19.984 21.5523 20.144 21.0243 20.144Z" fill="white"/>
</svg>
